<svg viewBox="0 0 128 128" 
    xmlns="http://www.w3.org/2000/svg">
    <g id="root">
        <path d="M97.255 19H30.745C25.1364 19 20.57 23.646 20.57 29.403V97.679C20.57 103.436 25.1364 108.082 30.745 108.082H87.0303L84.3997 98.7395L90.7529 104.749L96.7586 110.405L107.43 120V29.403C107.43 23.646 102.864 19 97.255 19ZM78.0961 84.953C78.0961 84.953 76.3093 82.7815 74.8203 80.8625C81.3224 78.994 83.8041 74.853 83.8041 74.853C81.7691 76.2165 79.8333 77.176 78.0961 77.8325C75.6144 78.893 73.232 79.6 70.8992 80.004C66.1343 80.913 61.7665 80.6605 58.0439 79.9535C55.2147 79.398 52.7827 78.59 50.7477 77.782C49.6061 77.3275 48.3652 76.772 47.1243 76.065C46.9754 75.964 46.8265 75.9135 46.6776 75.8125C46.5784 75.762 46.5287 75.7115 46.4791 75.661C45.5857 75.156 45.0893 74.8025 45.0893 74.8025C45.0893 74.8025 47.4718 78.8425 53.7753 80.7615C52.2863 82.6805 50.4498 84.953 50.4498 84.953C39.4807 84.5995 35.3114 77.277 35.3114 77.277C35.3114 61.016 42.4587 47.8355 42.4587 47.8355C49.6061 42.3815 56.406 42.533 56.406 42.533L56.9023 43.139C47.9681 45.765 43.8485 49.7545 43.8485 49.7545C43.8485 49.7545 44.9404 49.1485 46.7769 48.29C52.0878 45.9165 56.3067 45.26 58.0439 45.1085C58.3417 45.058 58.5899 45.0075 58.8877 45.0075C61.9154 44.6035 65.3401 44.5025 68.9138 44.9065C73.6291 45.462 78.6918 46.876 83.8537 49.7545C83.8537 49.7545 79.9326 45.967 71.4948 43.341L72.1897 42.533C72.1897 42.533 78.9896 42.3815 86.1369 47.8355C86.1369 47.8355 93.2842 61.016 93.2842 77.277C93.2842 77.277 89.0653 84.5995 78.0961 84.953ZM55.0162 61.3695C52.187 61.3695 49.9535 63.8945 49.9535 66.975C49.9535 70.0555 52.2367 72.5805 55.0162 72.5805C57.8454 72.5805 60.0789 70.0555 60.0789 66.975C60.1285 63.8945 57.8454 61.3695 55.0162 61.3695ZM73.1327 61.3695C70.3036 61.3695 68.07 63.8945 68.07 66.975C68.07 70.0555 70.3532 72.5805 73.1327 72.5805C75.9619 72.5805 78.1954 70.0555 78.1954 66.975C78.1954 63.8945 75.9619 61.3695 73.1327 61.3695Z"/>
    </g>
</svg>
