<svg viewBox="0 0 128 128" 
    xmlns="http://www.w3.org/2000/svg">
    <g id="root">
        <path fill-rule="evenodd" clip-rule="evenodd" d="M64 19C39.712 19 20 39.16 20 64C20 88.84 39.712 109 64 109H86V100H64C44.904 100 28.8 83.53 28.8 64C28.8 44.47 44.904 28 64 28C83.096 28 99.2 44.47 99.2 64V70.435C99.2 73.99 96.076 77.5 92.6 77.5C89.124 77.5 86 73.99 86 70.435V64C86 51.58 76.144 41.5 64 41.5C51.856 41.5 42 51.58 42 64C42 76.42 51.856 86.5 64 86.5C70.072 86.5 75.616 83.98 79.576 79.885C82.436 83.89 87.364 86.5 92.6 86.5C101.268 86.5 108 79.3 108 70.435V64C108 39.16 88.288 19 64 19ZM64 77.5C56.696 77.5 50.8 71.47 50.8 64C50.8 56.53 56.696 50.5 64 50.5C71.304 50.5 77.2 56.53 77.2 64C77.2 71.47 71.304 77.5 64 77.5Z"/>
    </g>
</svg>
