<svg viewBox="0 0 128 128" 
    xmlns="http://www.w3.org/2000/svg">
    <g id="root">
        <path fill-rule="evenodd" clip-rule="evenodd" d="M63.4868 19V19.0008H63.5132C88.5965 19.0008 109 39.41 109 64.5004C109 89.5901 88.5965 110 63.5132 110C54.2605 110 45.6765 107.245 38.4834 102.484L20.9946 108.073L26.664 91.1686C21.209 83.6783 18 74.4502 18 64.4996C18 39.4092 38.4035 19 63.4868 19ZM50.7844 42.1118C49.9021 39.9988 49.2334 39.9188 47.8969 39.8644C47.4418 39.838 46.9346 39.8116 46.3724 39.8116C44.6335 39.8116 42.8154 40.3196 41.7189 41.443C40.3823 42.8071 37.0661 45.9898 37.0661 52.5168C37.0661 59.0438 41.826 65.3564 42.4675 66.2397C43.1362 67.1214 51.7474 80.71 65.1177 86.248C75.5734 90.5813 78.676 90.1796 81.0556 89.6716C84.5317 88.9227 88.8909 86.3537 89.9875 83.2518C91.0841 80.1483 91.0841 77.5001 90.7626 76.9384C90.4418 76.3767 89.5588 76.0567 88.2222 75.387C86.8856 74.7182 80.3869 71.5083 79.1567 71.0802C77.953 70.6258 76.8036 70.7865 75.8949 72.0707C74.6111 73.8628 73.3545 75.6822 72.3379 76.7784C71.5357 77.6344 70.2248 77.7416 69.129 77.2864C67.658 76.6719 63.5404 75.2262 58.4589 70.7058C54.5277 67.2022 51.8538 62.8426 51.0787 61.532C50.3028 60.1951 50.9987 59.4183 51.613 58.6966C52.2817 57.8669 52.9232 57.2788 53.5919 56.5028C54.2606 55.7275 54.6348 55.3259 55.0628 54.4162C55.5179 53.5337 55.1964 52.624 54.8756 51.9551C54.5549 51.2863 51.8809 44.7593 50.7844 42.1118Z"/>
    </g>
</svg>
